<svg width="134" height="38" viewBox="0 0 134 38" fill="none" xmlns="http://www.w3.org/2000/svg">
<path d="M35.6249 22.4444L34.3349 18.5745H25.7657L24.4758 22.4444H19.8994L27.4243 0.944794H32.6763L40.2319 22.4444H35.6249ZM27.1171 14.6124H33.0142L30.0657 5.82828L27.1171 14.6124Z" fill="white"/>
<path d="M55.035 22.4444L50.7044 14.981H47.4794V22.4444H43.2409V0.944794H51.8408C53.8269 0.944794 55.5162 1.64097 56.9085 3.03333C58.3009 4.42569 58.9971 6.1047 58.9971 8.07038C58.9971 9.40131 58.6183 10.6401 57.8607 11.7867C57.1031 12.9129 56.0997 13.7627 54.8507 14.336L59.6113 22.4444H55.035ZM47.4794 4.90687V11.2646H51.8408C52.6393 11.2646 53.3253 10.9575 53.8986 10.3432C54.4719 9.70845 54.7586 8.95085 54.7586 8.07038C54.7586 7.18992 54.4719 6.44256 53.8986 5.82828C53.3253 5.21401 52.6393 4.90687 51.8408 4.90687H47.4794Z" fill="white"/>
<path d="M76.799 0.944794V4.99901H70.9941V22.4444H66.7556V4.99901H60.9815V0.944794H76.799Z" fill="white"/>
<path d="M84.3251 18.3902H92.5257V22.4444H80.0866V0.944794H84.3251V18.3902Z" fill="white"/>
<path d="M110.276 22.4444L108.986 18.5745H100.417L99.127 22.4444H94.5506L102.076 0.944794H107.328L114.883 22.4444H110.276ZM101.768 14.6124H107.665L104.717 5.82828L101.768 14.6124Z" fill="white"/>
<path d="M130.884 11.2953C132.768 12.3805 133.71 14.0186 133.71 16.2095C133.71 18.0319 133.065 19.5266 131.775 20.6937C130.485 21.8609 128.898 22.4444 127.014 22.4444H117.892V0.944794H126.369C128.212 0.944794 129.758 1.51812 131.007 2.66476C132.276 3.79093 132.911 5.23448 132.911 6.9954C132.911 8.7768 132.235 10.2101 130.884 11.2953ZM126.369 4.90687H122.131V9.63679H126.369C127.024 9.63679 127.567 9.41155 127.997 8.96108C128.447 8.51062 128.673 7.94753 128.673 7.27183C128.673 6.59613 128.458 6.03304 128.028 5.58257C127.598 5.1321 127.045 4.90687 126.369 4.90687ZM127.014 18.4823C127.731 18.4823 128.325 18.2469 128.796 17.7759C129.266 17.2845 129.502 16.6702 129.502 15.9331C129.502 15.2165 129.266 14.6227 128.796 14.1517C128.325 13.6603 127.731 13.4146 127.014 13.4146H122.131V18.4823H127.014Z" fill="white"/>
<path d="M4.68713 38.0003C3.62869 38.0003 2.71909 37.7522 1.95833 37.256C1.2086 36.7489 0.684894 36.0543 0.387207 35.1722L1.3795 34.5934C1.58898 35.31 1.97487 35.8723 2.53717 36.2803C3.09947 36.6772 3.82163 36.8757 4.70367 36.8757C5.56366 36.8757 6.2307 36.6882 6.70479 36.3134C7.18991 35.9275 7.43247 35.4203 7.43247 34.7918C7.43247 34.1854 7.21196 33.7279 6.77094 33.4192C6.32992 33.1105 5.60224 32.7907 4.5879 32.46C3.38613 32.063 2.5923 31.7433 2.20641 31.5007C1.32437 30.9715 0.883352 30.2053 0.883352 29.2019C0.883352 28.2207 1.22514 27.4489 1.90872 26.8866C2.5923 26.3133 3.43574 26.0266 4.43906 26.0266C5.34315 26.0266 6.12595 26.2637 6.78748 26.7378C7.44901 27.2008 7.93964 27.7962 8.25938 28.5239L7.28363 29.0696C6.7544 27.7907 5.80622 27.1512 4.43906 27.1512C3.72241 27.1512 3.14357 27.3276 2.70255 27.6804C2.26153 28.0332 2.04102 28.5239 2.04102 29.1523C2.04102 29.7256 2.23948 30.1556 2.6364 30.4423C3.03332 30.729 3.68933 31.0211 4.60444 31.3188C5.02341 31.4622 5.3211 31.5669 5.4975 31.6331C5.68494 31.6882 5.94955 31.7874 6.29134 31.9307C6.64415 32.063 6.90325 32.1843 7.06863 32.2946C7.23401 32.3938 7.43247 32.5371 7.664 32.7246C7.90656 32.901 8.07746 33.0829 8.17669 33.2703C8.28694 33.4467 8.38066 33.6672 8.45784 33.9319C8.54604 34.1854 8.59014 34.4611 8.59014 34.7588C8.59014 35.74 8.23181 36.5284 7.51516 37.1237C6.79851 37.7081 5.85583 38.0003 4.68713 38.0003Z" fill="#3582E5"/>
<path d="M24.5046 38.0003C22.7516 38.0003 21.3018 37.4214 20.1551 36.2637C19.0085 35.1061 18.4351 33.6893 18.4351 32.0134C18.4351 30.3376 19.0085 28.9208 20.1551 27.7631C21.3018 26.6054 22.7516 26.0266 24.5046 26.0266C25.5741 26.0266 26.5554 26.2857 27.4484 26.8039C28.3415 27.3111 29.0306 28.0002 29.5157 28.8712L28.4903 29.4666C28.1265 28.7609 27.5863 28.1986 26.8696 27.7797C26.1529 27.3607 25.3646 27.1512 24.5046 27.1512C23.0603 27.1512 21.8806 27.6198 20.9655 28.557C20.0504 29.4941 19.5928 30.6463 19.5928 32.0134C19.5928 33.3806 20.0504 34.5327 20.9655 35.4699C21.8806 36.4071 23.0603 36.8757 24.5046 36.8757C25.3646 36.8757 26.1529 36.6662 26.8696 36.2472C27.5863 35.8282 28.1265 35.2659 28.4903 34.5603L29.5157 35.1391C29.0416 36.0102 28.3525 36.7048 27.4484 37.223C26.5554 37.7412 25.5741 38.0003 24.5046 38.0003Z" fill="#3582E5"/>
<path d="M47.4616 26.2251H48.6192V37.8018H47.4616V32.3938H41.1771V37.8018H40.0194V26.2251H41.1771V31.3023H47.4616V26.2251Z" fill="#3582E5"/>
<path d="M69.4356 36.2637C68.278 37.4214 66.8612 38.0003 65.1853 38.0003C63.5095 38.0003 62.0927 37.4214 60.935 36.2637C59.7773 35.095 59.1985 33.6783 59.1985 32.0134C59.1985 30.3486 59.7773 28.9373 60.935 27.7797C62.0927 26.611 63.5095 26.0266 65.1853 26.0266C66.8612 26.0266 68.278 26.611 69.4356 27.7797C70.5933 28.9373 71.1721 30.3486 71.1721 32.0134C71.1721 33.6783 70.5933 35.095 69.4356 36.2637ZM61.7454 35.4699C62.6715 36.4071 63.8182 36.8757 65.1853 36.8757C66.5525 36.8757 67.6991 36.4071 68.6253 35.4699C69.5514 34.5217 70.0145 33.3696 70.0145 32.0134C70.0145 30.6573 69.5514 29.5107 68.6253 28.5735C67.6991 27.6253 66.5525 27.1512 65.1853 27.1512C63.8182 27.1512 62.6715 27.6253 61.7454 28.5735C60.8192 29.5107 60.3562 30.6573 60.3562 32.0134C60.3562 33.3696 60.8192 34.5217 61.7454 35.4699Z" fill="#3582E5"/>
<path d="M91.3274 36.2637C90.1697 37.4214 88.753 38.0003 87.0771 38.0003C85.4012 38.0003 83.9845 37.4214 82.8268 36.2637C81.6691 35.095 81.0903 33.6783 81.0903 32.0134C81.0903 30.3486 81.6691 28.9373 82.8268 27.7797C83.9845 26.611 85.4012 26.0266 87.0771 26.0266C88.753 26.0266 90.1697 26.611 91.3274 27.7797C92.4851 28.9373 93.0639 30.3486 93.0639 32.0134C93.0639 33.6783 92.4851 35.095 91.3274 36.2637ZM83.6371 35.4699C84.5633 36.4071 85.7099 36.8757 87.0771 36.8757C88.4442 36.8757 89.5909 36.4071 90.517 35.4699C91.4432 34.5217 91.9062 33.3696 91.9062 32.0134C91.9062 30.6573 91.4432 29.5107 90.517 28.5735C89.5909 27.6253 88.4442 27.1512 87.0771 27.1512C85.7099 27.1512 84.5633 27.6253 83.6371 28.5735C82.711 29.5107 82.2479 30.6573 82.2479 32.0134C82.2479 33.3696 82.711 34.5217 83.6371 35.4699Z" fill="#3582E5"/>
<path d="M104.801 36.7103H110.093V37.8018H103.644V26.2251H104.801V36.7103Z" fill="#3582E5"/>
<path fill-rule="evenodd" clip-rule="evenodd" d="M7.19181 2.31432C5.33178 2.92447 3.43109 4.12679 2.32111 5.3954C-2.79621 11.2438 1.10381 19.8142 8.60103 19.195C9.66975 19.1068 10.8512 18.9415 11.2264 18.8279C11.8819 18.6293 11.9005 18.671 11.7041 19.9045C11.4395 21.5643 11.9181 21.297 12.6413 19.381C12.9393 18.5918 13.7698 17.2713 14.4869 16.4463C16.781 13.8068 17.6372 11.0077 16.4991 9.86569C16.071 9.43582 16.0698 9.20363 16.4863 7.37136C16.9604 5.28471 16.8322 4.76455 15.8875 4.94723C15.4983 5.02223 15.1617 5.64318 14.7348 7.07318C14.4029 8.1843 13.9725 9.09384 13.7778 9.09504C13.0974 9.09864 13.0589 7.91972 13.6908 6.44533C14.5434 4.45677 14.394 3.42994 13.1462 2.70129C11.8787 1.96124 8.86559 1.76536 7.19181 2.31432ZM10.7887 3.81271C10.876 4.0413 10.743 4.52156 10.4927 4.87974C9.65331 6.08235 8.18609 5.21511 8.71582 3.82981C8.92747 3.27605 10.5782 3.26285 10.7887 3.81271ZM6.4863 5.4557C6.97178 6.36583 6.1183 7.15898 4.78949 7.03239C4.22538 6.97899 4.34138 5.57029 4.93896 5.22111C5.71712 4.76635 6.15417 4.83264 6.4863 5.4557ZM3.9674 9.36412C3.9674 10.2848 3.11541 10.8667 2.41588 10.4236C1.69094 9.96498 1.62696 9.53811 2.19765 8.96575C2.92378 8.2371 3.9674 8.47198 3.9674 9.36412ZM4.02449 12.8874C4.45019 14.0012 2.80809 14.9944 2.05206 14.0801C1.77673 13.7474 1.76717 13.4786 2.0141 13.0158C2.41349 12.2667 3.75425 12.1812 4.02449 12.8874ZM12.4873 15.2104C12.4873 15.8956 11.3869 16.6671 10.7152 16.4532C9.77289 16.1529 9.96033 14.7874 10.9926 14.432C11.5749 14.2316 12.4873 14.7067 12.4873 15.2104ZM7.38941 15.2272C7.65816 15.5524 7.66234 15.8146 7.40585 16.2951C6.98165 17.0904 5.52041 17.0274 5.36526 16.2069C5.14553 15.0445 6.63996 14.3213 7.38941 15.2272Z" fill="#3582E5"/>
</svg>
