<svg width="134" height="38" viewBox="0 0 134 38" fill="none" xmlns="http://www.w3.org/2000/svg">
<path d="M35.6249 21.4996L34.3349 17.6297H25.7657L24.4758 21.4996H19.8994L27.4243 0H32.6763L40.2319 21.4996H35.6249ZM27.1171 13.6676H33.0142L30.0657 4.88349L27.1171 13.6676Z" fill="black"/>
<path d="M55.035 21.4996L50.7044 14.0362H47.4794V21.4996H43.2409V0H51.8408C53.8269 0 55.5162 0.696179 56.9085 2.08854C58.3009 3.48089 58.9971 5.15991 58.9971 7.12559C58.9971 8.45652 58.6183 9.69531 57.8607 10.842C57.1031 11.9681 56.0997 12.8179 54.8507 13.3912L59.6113 21.4996H55.035ZM47.4794 3.96207V10.3198H51.8408C52.6393 10.3198 53.3253 10.0127 53.8986 9.39841C54.4719 8.76366 54.7586 8.00605 54.7586 7.12559C54.7586 6.24513 54.4719 5.49776 53.8986 4.88349C53.3253 4.26921 52.6393 3.96207 51.8408 3.96207H47.4794Z" fill="black"/>
<path d="M76.799 0V4.05422H70.9941V21.4996H66.7556V4.05422H60.9815V0H76.799Z" fill="black"/>
<path d="M84.3251 17.4454H92.5257V21.4996H80.0866V0H84.3251V17.4454Z" fill="black"/>
<path d="M110.276 21.4996L108.986 17.6297H100.417L99.127 21.4996H94.5506L102.076 0H107.328L114.883 21.4996H110.276ZM101.768 13.6676H107.665L104.717 4.88349L101.768 13.6676Z" fill="black"/>
<path d="M130.884 10.3505C132.768 11.4358 133.71 13.0738 133.71 15.2647C133.71 17.0871 133.065 18.5818 131.775 19.7489C130.485 20.9161 128.898 21.4996 127.014 21.4996H117.892V0H126.369C128.212 0 129.758 0.573323 131.007 1.71997C132.276 2.84614 132.911 4.28969 132.911 6.05061C132.911 7.83201 132.235 9.26532 130.884 10.3505ZM126.369 3.96207H122.131V8.69199H126.369C127.024 8.69199 127.567 8.46676 127.997 8.01629C128.447 7.56582 128.673 7.00274 128.673 6.32703C128.673 5.65133 128.458 5.08825 128.028 4.63778C127.598 4.18731 127.045 3.96207 126.369 3.96207ZM127.014 17.5376C127.731 17.5376 128.325 17.3021 128.796 16.8311C129.266 16.3397 129.502 15.7254 129.502 14.9883C129.502 14.2717 129.266 13.6779 128.796 13.2069C128.325 12.7155 127.731 12.4698 127.014 12.4698H122.131V17.5376H127.014Z" fill="black"/>
<path d="M4.68713 37.0555C3.62869 37.0555 2.71909 36.8074 1.95833 36.3113C1.2086 35.8041 0.684894 35.1095 0.387207 34.2275L1.3795 33.6486C1.58898 34.3653 1.97487 34.9276 2.53717 35.3355C3.09947 35.7324 3.82163 35.9309 4.70367 35.9309C5.56366 35.9309 6.2307 35.7435 6.70479 35.3686C7.18991 34.9827 7.43247 34.4755 7.43247 33.8471C7.43247 33.2407 7.21196 32.7831 6.77094 32.4744C6.32992 32.1657 5.60224 31.846 4.5879 31.5152C3.38613 31.1183 2.5923 30.7985 2.20641 30.556C1.32437 30.0268 0.883352 29.2605 0.883352 28.2572C0.883352 27.2759 1.22514 26.5041 1.90872 25.9418C2.5923 25.3685 3.43574 25.0818 4.43906 25.0818C5.34315 25.0818 6.12595 25.3189 6.78748 25.793C7.44901 26.2561 7.93964 26.8514 8.25938 27.5791L7.28363 28.1249C6.7544 26.8459 5.80622 26.2064 4.43906 26.2064C3.72241 26.2064 3.14357 26.3829 2.70255 26.7357C2.26153 27.0885 2.04102 27.5791 2.04102 28.2076C2.04102 28.7809 2.23948 29.2109 2.6364 29.4975C3.03332 29.7842 3.68933 30.0764 4.60444 30.3741C5.02341 30.5174 5.3211 30.6221 5.4975 30.6883C5.68494 30.7434 5.94955 30.8426 6.29134 30.986C6.64415 31.1183 6.90325 31.2396 7.06863 31.3498C7.23401 31.449 7.43247 31.5924 7.664 31.7798C7.90656 31.9562 8.07746 32.1381 8.17669 32.3256C8.28694 32.502 8.38066 32.7225 8.45784 32.9871C8.54604 33.2407 8.59014 33.5163 8.59014 33.814C8.59014 34.7953 8.23181 35.5836 7.51516 36.179C6.79851 36.7633 5.85583 37.0555 4.68713 37.0555Z" fill="#3582E5"/>
<path d="M24.5046 37.0555C22.7516 37.0555 21.3018 36.4767 20.1551 35.319C19.0085 34.1613 18.4351 32.7445 18.4351 31.0687C18.4351 29.3928 19.0085 27.976 20.1551 26.8184C21.3018 25.6607 22.7516 25.0818 24.5046 25.0818C25.5741 25.0818 26.5554 25.3409 27.4484 25.8591C28.3415 26.3663 29.0306 27.0554 29.5157 27.9264L28.4903 28.5218C28.1265 27.8162 27.5863 27.2539 26.8696 26.8349C26.1529 26.4159 25.3646 26.2064 24.5046 26.2064C23.0603 26.2064 21.8806 26.675 20.9655 27.6122C20.0504 28.5494 19.5928 29.7015 19.5928 31.0687C19.5928 32.4358 20.0504 33.588 20.9655 34.5251C21.8806 35.4623 23.0603 35.9309 24.5046 35.9309C25.3646 35.9309 26.1529 35.7214 26.8696 35.3024C27.5863 34.8835 28.1265 34.3212 28.4903 33.6155L29.5157 34.1944C29.0416 35.0654 28.3525 35.76 27.4484 36.2782C26.5554 36.7964 25.5741 37.0555 24.5046 37.0555Z" fill="#3582E5"/>
<path d="M47.4616 25.2803H48.6192V36.857H47.4616V31.449H41.1771V36.857H40.0194V25.2803H41.1771V30.3575H47.4616V25.2803Z" fill="#3582E5"/>
<path d="M69.4356 35.319C68.278 36.4767 66.8612 37.0555 65.1853 37.0555C63.5095 37.0555 62.0927 36.4767 60.935 35.319C59.7773 34.1503 59.1985 32.7335 59.1985 31.0687C59.1985 29.4038 59.7773 27.9926 60.935 26.8349C62.0927 25.6662 63.5095 25.0818 65.1853 25.0818C66.8612 25.0818 68.278 25.6662 69.4356 26.8349C70.5933 27.9926 71.1721 29.4038 71.1721 31.0687C71.1721 32.7335 70.5933 34.1503 69.4356 35.319ZM61.7454 34.5251C62.6715 35.4623 63.8182 35.9309 65.1853 35.9309C66.5525 35.9309 67.6991 35.4623 68.6253 34.5251C69.5514 33.577 70.0145 32.4248 70.0145 31.0687C70.0145 29.7125 69.5514 28.5659 68.6253 27.6287C67.6991 26.6805 66.5525 26.2064 65.1853 26.2064C63.8182 26.2064 62.6715 26.6805 61.7454 27.6287C60.8192 28.5659 60.3562 29.7125 60.3562 31.0687C60.3562 32.4248 60.8192 33.577 61.7454 34.5251Z" fill="#3582E5"/>
<path d="M91.3274 35.319C90.1697 36.4767 88.753 37.0555 87.0771 37.0555C85.4012 37.0555 83.9845 36.4767 82.8268 35.319C81.6691 34.1503 81.0903 32.7335 81.0903 31.0687C81.0903 29.4038 81.6691 27.9926 82.8268 26.8349C83.9845 25.6662 85.4012 25.0818 87.0771 25.0818C88.753 25.0818 90.1697 25.6662 91.3274 26.8349C92.4851 27.9926 93.0639 29.4038 93.0639 31.0687C93.0639 32.7335 92.4851 34.1503 91.3274 35.319ZM83.6371 34.5251C84.5633 35.4623 85.7099 35.9309 87.0771 35.9309C88.4442 35.9309 89.5909 35.4623 90.517 34.5251C91.4432 33.577 91.9062 32.4248 91.9062 31.0687C91.9062 29.7125 91.4432 28.5659 90.517 27.6287C89.5909 26.6805 88.4442 26.2064 87.0771 26.2064C85.7099 26.2064 84.5633 26.6805 83.6371 27.6287C82.711 28.5659 82.2479 29.7125 82.2479 31.0687C82.2479 32.4248 82.711 33.577 83.6371 34.5251Z" fill="#3582E5"/>
<path d="M104.801 35.7655H110.093V36.857H103.644V25.2803H104.801V35.7655Z" fill="#3582E5"/>
<path fill-rule="evenodd" clip-rule="evenodd" d="M7.19181 1.36949C5.33178 1.97965 3.43109 3.18197 2.32111 4.45058C-2.79621 10.299 1.10381 18.8694 8.60103 18.2502C9.66975 18.162 10.8512 17.9967 11.2264 17.883C11.8819 17.6844 11.9005 17.7261 11.7041 18.9597C11.4395 20.6194 11.9181 20.3522 12.6413 18.4362C12.9393 17.6469 13.7698 16.3264 14.4869 15.5015C16.781 12.862 17.6372 10.0629 16.4991 8.92086C16.071 8.49099 16.0698 8.25881 16.4863 6.42654C16.9604 4.33988 16.8322 3.81972 15.8875 4.00241C15.4983 4.0774 15.1617 4.69836 14.7348 6.12836C14.4029 7.23948 13.9725 8.14902 13.7778 8.15022C13.0974 8.15382 13.0589 6.9749 13.6908 5.5005C14.5434 3.51194 14.394 2.48511 13.1462 1.75647C11.8787 1.01642 8.86559 0.820532 7.19181 1.36949ZM10.7887 2.86789C10.876 3.09647 10.743 3.57674 10.4927 3.93491C9.65331 5.13753 8.18609 4.27029 8.71582 2.88499C8.92747 2.33123 10.5782 2.31803 10.7887 2.86789ZM6.4863 4.51087C6.97178 5.42101 6.1183 6.21415 4.78949 6.08756C4.22538 6.03416 4.34138 4.62546 4.93896 4.27629C5.71712 3.82152 6.15417 3.88782 6.4863 4.51087ZM3.9674 8.4193C3.9674 9.33993 3.11541 9.92189 2.41588 9.47882C1.69094 9.02015 1.62696 8.59328 2.19765 8.02093C2.92378 7.29228 3.9674 7.52716 3.9674 8.4193ZM4.02449 11.9425C4.45019 13.0564 2.80809 14.0496 2.05206 13.1353C1.77673 12.8026 1.76717 12.5338 2.0141 12.0709C2.41349 11.3219 3.75425 11.2364 4.02449 11.9425ZM12.4873 14.2656C12.4873 14.9507 11.3869 15.7223 10.7152 15.5084C9.77289 15.2081 9.96033 13.8426 10.9926 13.4871C11.5749 13.2868 12.4873 13.7619 12.4873 14.2656ZM7.38941 14.2824C7.65816 14.6076 7.66234 14.8697 7.40585 15.3503C6.98165 16.1456 5.52041 16.0826 5.36526 15.2621C5.14553 14.0997 6.63996 13.3764 7.38941 14.2824Z" fill="#3582E5"/>
</svg>
